# xmcd
#
# Track frame offsets: 
#        150
#        33955
#        45080
#        70027
#        95839
#        124322
#        142684
#        161959
#        186203
#        207010
#        229680
#        248277
#        259067
#        281837
#        300902
#        324328
#        346550
#
# Disc length: 4795 seconds
#
# Revision: 0
# Processed by: cddbd v1.5.2PL0 Copyright (c) Steve Scherf et al.
# Submitted via: ExactAudioCopy v1.3
#
DISCID=db12b911
DTITLE=Various Artist - Blues - Golden Age '60s -'70s  vol.04  CD1
DYEAR=2017
DGENRE=Rock
TTITLE0=Deep Purple (1974) - Mistreated
TTITLE1=Jimi Hendrix (1967) - Little Wing
TTITLE2=Nazareth (1973) - Free Wheeler
TTITLE3=Rory Gallagher (1979) - The Watcher
TTITLE4=Led Zeppelin (1969) - The Lemon Song
TTITLE5=Lynyrd Skynyrd (1977) - Honky Tonk Night Time Man
TTITLE6=The Doors (1970) - The Spy
TTITLE7=Warhorse (1971) - I (Who Have Nothing)
TTITLE8=Grand Funk Railroad (1970) - I Don't Have To Sing The Blues
TTITLE9=Bad Company (1974) - Ready For Love
TTITLE10=Dr. Feelgood (1974) - Cheque Book
TTITLE11=T. Rex (1971) - Life's a Gas
TTITLE12=Wishbone Ash (1973) - Sorrel
TTITLE13=Doobie Brothers (1973) - Dark Eyed Cajun Woman
TTITLE14=Steppenwolf (1968) - Hootchie Cootchie Man
TTITLE15=Canned Heat (1968) - On The Road Again
TTITLE16=Budgie (1974) - Wondering What Everyone Knows
EXTD=
EXTT0=
EXTT1=
EXTT2=
EXTT3=
EXTT4=
EXTT5=
EXTT6=
EXTT7=
EXTT8=
EXTT9=
EXTT10=
EXTT11=
EXTT12=
EXTT13=
EXTT14=
EXTT15=
EXTT16=
PLAYORDER=
